<?xml version="1.0" encoding="UTF-8"?>
<svg id="Layer_1" data-name="Layer 1" xmlns="http://www.w3.org/2000/svg" viewBox="0 0 315.32 131.87">
  <defs>
    <style>
      .cls-1, .cls-2 {
        stroke-width: 0px;
      }

      .cls-2 {
        fill: #fff;
      }

      .cls-3 {
        font-family: Helvetica, Helvetica;
        font-size: 82.2px;
      }
    </style>
  </defs>
  <g>
    <rect class="cls-1" x="-21.5" y="-20.5" width="367" height="195"/>
    <path class="cls-1" d="m345-20v194H-21V-20h366m1-1H-22v196h368V-21h0Z"/>
  </g>
  <path class="cls-2" d="m43.73,86.96c-3.34,2.79-8.12,4.19-14.33,4.19h-11.89v20.54H5.65v-57.12h24.53c5.65,0,10.16,1.47,13.52,4.42,3.36,2.95,5.04,7.51,5.04,13.68,0,6.74-1.67,11.51-5.02,14.3Zm-9.11-20.58c-1.51-1.27-3.63-1.9-6.35-1.9h-10.76v16.82h10.76c2.72,0,4.84-.68,6.35-2.05,1.51-1.37,2.27-3.54,2.27-6.51s-.76-5.09-2.27-6.36Z"/>
  <path class="cls-2" d="m84.78,69.67c2.12.91,3.86,2.29,5.23,4.15,1.16,1.58,1.86,3.2,2.12,4.87.26,1.67.39,4.39.39,8.16v24.83h-11.28v-25.72c0-2.28-.38-4.11-1.15-5.51-1-1.97-2.9-2.95-5.69-2.95s-5.1.98-6.6,2.93c-1.5,1.95-2.25,4.74-2.25,8.36v22.89h-11.04v-56.93h11.04v20.15c1.6-2.45,3.44-4.17,5.54-5.14,2.1-.97,4.3-1.45,6.62-1.45,2.6,0,4.96.45,7.08,1.36Z"/>
  <path class="cls-2" d="m111.26,64.4h-11.2v-10.19h11.2v10.19Zm-11.2,5.04h11.2v42.24h-11.2v-42.24Z"/>
  <path class="cls-2" d="m130.24,111.68h-11.05v-57.12h11.05v57.12Z"/>
  <path class="cls-2" d="m149.37,64.4h-11.2v-10.19h11.2v10.19Zm-11.2,5.04h11.2v42.24h-11.2v-42.24Z"/>
  <path class="cls-2" d="m192.59,73.97c3.45,3.64,5.17,8.99,5.17,16.04,0,7.44-1.68,13.11-5.05,17.01-3.37,3.9-7.7,5.85-13.01,5.85-3.38,0-6.19-.84-8.43-2.52-1.22-.93-2.42-2.29-3.59-4.07v22.01h-10.93v-58.87h10.58v6.24c1.2-1.83,2.47-3.28,3.82-4.34,2.47-1.89,5.41-2.83,8.81-2.83,4.97,0,9.17,1.82,12.62,5.46Zm-8.48,7.94c-1.5-2.51-3.93-3.76-7.3-3.76-4.05,0-6.83,1.9-8.34,5.7-.78,2.02-1.17,4.57-1.17,7.67,0,4.91,1.32,8.36,3.95,10.35,1.57,1.16,3.42,1.74,5.56,1.74,3.11,0,5.48-1.19,7.11-3.57,1.63-2.38,2.45-5.54,2.45-9.5,0-3.26-.75-6.14-2.25-8.64Z"/>
  <path class="cls-2" d="m150.56,27.5c6.87,0,12.46,1.75,16.59,5.2,3.72,3.11,5.97,6.81,6.84,11.28h-9.01c-1.15-3.77-3.55-6.47-7.15-8.06-2.15-.93-4.54-1.4-7.11-1.4-5.02,0-9.19,1.92-12.42,5.7-3.17,3.72-4.78,9.29-4.78,16.57s1.77,12.77,5.27,15.94c3.46,3.14,7.46,4.74,11.88,4.74s7.97-1.28,10.78-3.81c2.8-2.5,4.54-5.82,5.18-9.86l.26-1.64h-13.46v-6.7h20.97v27.82h-5.29l-1-5.95-.5-3-1.97,2.31c-2.21,2.59-4.17,4.41-5.86,5.42-2.91,1.79-6.57,2.69-10.88,2.69-7.22,0-12.97-2.42-17.59-7.43-4.75-4.96-7.16-11.9-7.16-20.63s2.44-15.99,7.26-21.27c4.79-5.25,11.23-7.91,19.14-7.91m0-1.42c-8.37,0-15.1,2.79-20.19,8.37-5.09,5.58-7.63,12.99-7.63,22.23s2.51,16.35,7.55,21.61c4.83,5.24,11.03,7.87,18.61,7.87,4.59,0,8.47-.97,11.62-2.9,1.84-1.1,3.9-3.01,6.2-5.71l1.2,7.13h7.91v-30.65h-23.8v9.53h13.22c-.59,3.72-2.17,6.74-4.73,9.03-2.56,2.3-5.84,3.45-9.84,3.45s-7.73-1.46-10.93-4.37c-3.21-2.91-4.81-7.88-4.81-14.89s1.48-12.18,4.44-15.65c2.96-3.47,6.74-5.2,11.34-5.2,2.4,0,4.58.43,6.55,1.28,3.51,1.55,5.72,4.27,6.62,8.18h11.75c-.65-5.51-3.18-10.1-7.58-13.78-4.41-3.68-10.24-5.53-17.5-5.53h0Z"/>
  <path class="cls-2" d="m188.19,4.98v101.94h-8.22V4.98h8.22m1.42-1.42h-11.05v104.77h11.05V3.56h0Z"/>
  <path class="cls-2" d="m211.09,35.85c4.39,0,8.34.87,11.73,2.59,3.12,1.6,4.64,4.58,4.64,9.13v19.38c0,1.48.02,3.13.07,4.96.1,1.75.39,2.92.92,3.69.17.24.36.46.57.67h-8.8c-.13-.42-.23-.83-.3-1.22-.12-.68-.21-1.48-.29-2.44l-.27-3.22-2.19,2.37c-1.4,1.52-3.08,2.86-4.96,3.96-2.16,1.24-4.65,1.86-7.41,1.86-3.52,0-6.34-.96-8.6-2.92-2.2-1.92-3.27-4.61-3.27-8.22,0-4.69,1.75-7.98,5.34-10.04,2.02-1.16,5.13-2.02,9.22-2.54l3.8-.46c2.22-.28,3.79-.63,4.79-1.07,2.68-1.14,3.24-3.04,3.24-4.44,0-2.86-1.4-4.2-2.57-4.83-1.44-.78-3.42-1.16-6.03-1.16-3.07,0-5.32.82-6.72,2.45-.73.9-1.28,2.03-1.62,3.36h-7.94c.37-2.73,1.27-5.02,2.67-6.82,2.63-3.34,7.34-5.04,13.99-5.04m-3.06,36.55c2.69,0,5.21-.79,7.47-2.34,2.42-1.67,3.69-4.62,3.78-8.81v-6.66l-2.16,1.34c-.66.41-1.27.72-1.89.95-.64.24-1.56.47-2.73.68l-2.49.47c-2.53.44-4.34.99-5.55,1.68-2.17,1.26-3.32,3.3-3.32,5.92,0,2.34.72,4.09,2.14,5.2,1.31,1.04,2.91,1.57,4.75,1.57m3.06-37.97c-7.14,0-12.17,1.86-15.1,5.58-1.85,2.38-2.88,5.42-3.12,9.11h10.66c.26-1.63.79-2.92,1.57-3.88,1.1-1.29,2.97-1.93,5.62-1.93,2.36,0,4.14.33,5.36.99,1.22.65,1.83,1.85,1.83,3.58,0,1.42-.8,2.47-2.38,3.14-.89.39-2.36.71-4.41.97l-3.79.46c-4.3.55-7.55,1.45-9.76,2.72-4.04,2.32-6.05,6.08-6.05,11.27,0,4.01,1.25,7.1,3.76,9.29,2.51,2.18,5.68,3.27,9.53,3.27,3.01,0,5.72-.68,8.11-2.05,2-1.17,3.77-2.57,5.3-4.23.08.96.18,1.81.31,2.56s.36,1.55.7,2.4h12.01v-1.63c-.72-.33-1.27-.76-1.63-1.27-.36-.52-.58-1.5-.66-2.95-.05-1.91-.07-3.54-.07-4.88v-19.38c0-5.09-1.81-8.55-5.41-10.39-3.61-1.83-7.74-2.75-12.38-2.75h0Zm-3.06,36.55c-1.52,0-2.81-.42-3.87-1.26-1.07-.84-1.6-2.2-1.6-4.09,0-2.12.87-3.68,2.61-4.69,1.03-.59,2.72-1.1,5.08-1.51l2.51-.47c1.26-.23,2.25-.48,2.97-.75.72-.27,1.43-.63,2.14-1.07v4.11c-.08,3.7-1.14,6.24-3.17,7.64-2.03,1.39-4.25,2.09-6.67,2.09h0Z"/>
  <path class="cls-2" d="m249.72,35.66c4.99,0,9.08.99,12.16,2.94,2.59,1.64,4.23,4.42,4.88,8.29h-8.24c-.26-1.12-.69-2.08-1.3-2.86-1.5-1.83-3.96-2.76-7.32-2.76-2.75,0-4.71.46-5.99,1.4-1.74,1.28-2.11,2.76-2.11,3.78,0,1.8.83,3.19,2.37,4,.78.42,2.86,1.21,11.88,3.19,4.13.97,7.23,2.42,9.22,4.32,1.91,1.86,2.83,4.13,2.83,6.93,0,3.79-1.37,6.79-4.18,9.17-2.85,2.42-7.4,3.64-13.54,3.64s-10.91-1.3-13.8-3.85c-2.53-2.23-3.92-4.94-4.22-8.23h8.51c.33,1.65.89,2.88,1.69,3.73,1.68,1.79,4.51,2.66,8.66,2.66,2.44,0,4.35-.37,5.83-1.12,2.25-1.11,2.72-2.89,2.72-4.18,0-1.73-.77-3.12-2.22-4.02-.81-.51-2.91-1.37-11.97-3.51-4.55-1.13-7.76-2.52-9.54-4.13-1.67-1.49-2.48-3.63-2.48-6.54,0-3.52,1.35-6.46,4.14-9.01,2.79-2.54,6.82-3.83,11.99-3.83m0-1.42c-5.56,0-9.88,1.4-12.95,4.2-3.07,2.81-4.6,6.16-4.6,10.06,0,3.31.98,5.84,2.95,7.6,1.96,1.78,5.34,3.26,10.14,4.45,6.67,1.58,10.52,2.69,11.56,3.34,1.03.64,1.55,1.58,1.55,2.82s-.64,2.27-1.93,2.91c-1.28.65-3.02.97-5.2.97-3.71,0-6.25-.74-7.63-2.21-.78-.83-1.28-2.22-1.52-4.18h-11.2c0,4.34,1.59,7.91,4.76,10.71,3.17,2.8,8.08,4.21,14.74,4.21s11.34-1.33,14.46-3.98c3.12-2.64,4.68-6.06,4.68-10.25,0-3.17-1.09-5.82-3.26-7.94-2.19-2.09-5.49-3.66-9.89-4.69-6.6-1.45-10.44-2.47-11.53-3.06-1.09-.57-1.63-1.49-1.63-2.75,0-1.01.51-1.89,1.53-2.64,1.02-.75,2.74-1.12,5.15-1.12,2.93,0,5,.75,6.22,2.24.65.83,1.05,1.96,1.2,3.38h11.05c-.49-5.17-2.41-8.81-5.73-10.91-3.33-2.11-7.63-3.16-12.92-3.16h0Z"/>
  <path class="cls-2" d="m289.87,35.66c4.98,0,9.07.99,12.15,2.94,2.63,1.66,4.23,4.38,4.88,8.29h-8.24c-.26-1.12-.69-2.08-1.3-2.86-1.5-1.83-3.96-2.76-7.32-2.76-2.74,0-4.7.46-5.99,1.4-1.74,1.28-2.11,2.76-2.11,3.78,0,1.8.83,3.19,2.37,4,.78.42,2.86,1.21,11.88,3.19,4.12.96,7.23,2.42,9.23,4.32,1.9,1.86,2.82,4.12,2.82,6.93,0,3.79-1.37,6.79-4.18,9.17-2.85,2.42-7.4,3.64-13.54,3.64s-10.91-1.3-13.8-3.85c-2.53-2.23-3.92-4.94-4.22-8.23h8.51c.33,1.65.89,2.88,1.69,3.73,1.68,1.79,4.51,2.66,8.66,2.66,2.44,0,4.35-.37,5.83-1.12,2.25-1.11,2.72-2.89,2.72-4.18,0-1.73-.77-3.12-2.22-4.02-.81-.51-2.91-1.37-11.97-3.51-4.55-1.13-7.76-2.52-9.54-4.13-1.67-1.49-2.48-3.63-2.48-6.54,0-3.51,1.35-6.46,4.14-9.01,2.79-2.54,6.83-3.83,12-3.83m0-1.42c-5.57,0-9.89,1.4-12.96,4.2-3.06,2.81-4.6,6.16-4.6,10.06,0,3.31.98,5.84,2.95,7.6,1.96,1.78,5.34,3.26,10.14,4.45,6.67,1.58,10.52,2.69,11.56,3.34,1.03.64,1.55,1.58,1.55,2.82s-.64,2.27-1.93,2.91c-1.28.65-3.02.97-5.2.97-3.71,0-6.25-.74-7.63-2.21-.78-.83-1.28-2.22-1.52-4.18h-11.2c0,4.34,1.59,7.91,4.76,10.71,3.17,2.8,8.08,4.21,14.74,4.21s11.34-1.33,14.46-3.98c3.12-2.64,4.68-6.06,4.68-10.25,0-3.17-1.08-5.82-3.25-7.94-2.2-2.09-5.5-3.66-9.9-4.69-6.6-1.45-10.44-2.47-11.53-3.06-1.09-.57-1.63-1.49-1.63-2.75,0-1.01.51-1.89,1.53-2.64,1.03-.75,2.74-1.12,5.15-1.12,2.93,0,5,.75,6.22,2.24.65.83,1.05,1.96,1.2,3.38h11.05c-.49-5.17-2.4-8.81-5.73-10.91-3.33-2.11-7.63-3.16-12.91-3.16h0Z"/>
  <text class="cls-3" transform="translate(1.98 110.03)"><tspan x="0" y="0">Philip</tspan></text>
</svg>